<svg width="41" height="40" viewBox="0 0 41 40" fill="none" xmlns="http://www.w3.org/2000/svg">
<path opacity="0.5" d="M40.4903 0.270225L30.7035 36.8334C30.6538 36.9993 30.4547 37.0491 30.3386 36.9329L23.7864 30.3771L28.6964 12.0541C28.7462 11.8881 28.5969 11.7387 28.431 11.7885L10.1181 16.7012L3.59917 10.1786C3.48306 10.0624 3.53282 9.86327 3.6987 9.81348L40.2249 0.00467392C40.3907 -0.02852 40.54 0.120853 40.4903 0.270225Z" fill="#00B37E"/>
<path opacity="0.5" d="M23.7861 30.3768L21.2648 39.8371C21.215 40.0031 21.016 40.0529 20.8998 39.9367L0.563282 19.6054C0.447168 19.4892 0.496931 19.2901 0.662808 19.2403L10.1178 16.7009L23.7861 30.3768Z" fill="#00B37E"/>
<path d="M28.6957 12.0538L23.7857 30.3768L10.1174 16.7009L28.4303 11.7882C28.5962 11.7384 28.7454 11.8878 28.6957 12.0538Z" fill="#00B37E"/>
</svg>
